<?xml version="1.0" standalone="no"?>
<!DOCTYPE svg PUBLIC "-//W3C//DTD SVG 20010904//EN"
 "http://www.w3.org/TR/2001/REC-SVG-20010904/DTD/svg10.dtd">
<svg version="1.0" xmlns="http://www.w3.org/2000/svg"
 width="512.000000pt" height="512.000000pt" viewBox="0 0 512.000000 512.000000"
 preserveAspectRatio="xMidYMid meet">
<metadata>
Created by potrace 1.11, written by Peter Selinger 2001-2013
</metadata>
<g transform="translate(0.000000,512.000000) scale(0.100000,-0.100000)"
fill="#000000" stroke="none">
<path d="M2520 3875 c-32 -22 -42 -23 -126 -18 l-91 6 -61 -42 -62 -42 0 -124
0 -124 -55 -32 c-49 -30 -54 -37 -57 -72 -3 -39 -6 -41 -90 -90 l-88 -49 0
-89 c0 -86 1 -89 19 -79 35 18 41 12 41 -41 l0 -52 -52 7 c-29 3 -70 6 -90 6
l-38 0 0 85 c0 47 -3 85 -6 85 -3 0 -14 -5 -25 -10 -16 -9 -19 -22 -19 -93 l0
-83 -45 -22 -45 -22 0 -80 c0 -76 1 -80 24 -86 14 -3 37 1 54 10 32 17 150 22
211 10 l31 -6 0 -104 0 -104 133 0 c72 0 162 -3 200 -7 l67 -6 0 -102 0 -102
298 -8 c163 -4 420 -10 570 -14 l273 -6 -5 40 c-3 22 -8 204 -12 405 -3 201
-8 404 -9 451 l-3 86 72 35 c39 19 103 48 142 63 l71 27 -5 97 c-2 53 -6 98
-9 101 -2 2 -25 7 -51 10 l-47 5 -3 73 c-2 60 -6 72 -20 73 -9 0 -93 6 -187
13 l-170 13 -85 -46 c-73 -40 -85 -50 -88 -75 -3 -26 -6 -28 -34 -22 -17 3
-55 6 -84 6 l-54 0 0 69 0 69 -37 6 c-21 3 -90 8 -153 11 -63 3 -126 8 -140
10 -15 3 -39 -5 -60 -20z m395 -636 c127 -5 240 -12 251 -15 21 -4 22 -9 28
-251 4 -137 7 -275 9 -307 l2 -60 -43 -13 c-34 -9 -105 -10 -330 -2 -157 5
-288 12 -292 15 -3 3 -7 142 -8 309 l-4 304 34 15 c42 18 70 19 353 5z"/>
<path d="M2810 2930 l0 -100 58 0 c31 0 74 -3 95 -6 l37 -7 0 100 0 100 -52 7
c-29 3 -72 6 -95 6 l-43 0 0 -100z"/>
<path d="M4270 3496 l0 -53 49 5 c28 2 79 1 115 -2 l64 -7 6 -57 c3 -31 8
-123 12 -204 l6 -148 78 0 c113 0 110 3 110 -99 0 -47 4 -92 8 -98 5 -8 52
-14 137 -18 72 -3 160 -8 198 -10 l67 -5 0 350 0 350 -22 0 c-13 0 -201 11
-418 25 -217 14 -398 25 -402 25 -5 0 -8 -24 -8 -54z"/>
<path d="M4100 2398 c-25 -5 -83 -6 -130 -3 -50 4 -107 1 -137 -5 l-53 -12 0
-103 0 -104 -102 0 c-57 1 -160 0 -230 -1 l-128 -3 0 -93 0 -94 50 0 50 0 0
-100 0 -100 50 0 c50 0 50 0 50 -32 0 -18 3 -70 7 -115 l6 -83 -147 0 -146 0
0 -105 0 -105 -37 -1 c-21 -1 -41 -1 -45 0 -5 0 -8 -46 -8 -104 l0 -105 -45 0
-45 0 5 -103 c14 -267 17 -307 24 -307 5 0 68 -11 142 -25 111 -21 150 -24
228 -19 l94 7 -7 131 c-3 72 -9 220 -12 329 l-7 197 249 0 249 0 -3 110 -3
110 287 0 287 0 -6 68 c-4 37 -14 225 -23 418 l-17 351 -111 7 c-147 8 -281 6
-336 -6z"/>
<path d="M1518 2146 l-48 -9 0 -194 0 -193 129 0 c71 0 136 3 145 6 13 5 16
24 16 100 l0 94 -35 1 c-19 1 -39 3 -45 4 -5 1 -32 3 -60 4 l-49 1 -3 98 -3
97 -47 -9z"/>
<path d="M4950 1923 c0 -26 7 -164 16 -306 8 -143 13 -266 10 -273 -4 -11 -42
-14 -186 -14 -119 0 -180 -4 -180 -11 0 -37 32 -615 34 -617 2 -1 110 1 240 4
l236 7 0 629 0 628 -85 0 -85 0 0 -47z"/>
<path d="M2410 900 c0 -33 4 -60 10 -60 6 0 10 27 10 60 0 33 -4 60 -10 60 -6
0 -10 -27 -10 -60z"/>
<path d="M4444 174 c3 -9 6 -46 6 -83 l0 -68 51 -11 c32 -8 153 -12 335 -12
l284 0 0 71 0 71 -197 -7 c-197 -6 -198 -6 -330 24 -152 36 -157 36 -149 15z"/>
<path d="M2590 60 l0 -60 345 0 345 0 0 36 0 36 -47 -6 c-27 -3 -138 -8 -248
-12 l-200 -6 -97 36 -98 36 0 -60z"/>
</g>
</svg>
